<svg width="135" height="501" viewBox="0 0 135 501" fill="none" xmlns="http://www.w3.org/2000/svg">
<mask id="path-1-inside-1_12913_1595" fill="white">
<path d="M134.858 266.561C133.697 260.041 132.588 253.539 133.525 246.859C133.75 245.235 133.572 243.493 133.27 241.863C130.603 227.567 129.423 213.128 128.759 198.625C128.623 195.596 128.712 192.52 127.787 189.568C127.651 185.662 126.353 182.041 125.002 178.449C123.235 173.737 121.268 169.079 120.622 164.052C118.826 150.106 118.28 136.13 119.916 122.124C120.651 115.848 121.457 109.583 121.143 103.241C120.616 92.7322 116.034 87.2853 106.272 85.6494C104.82 85.4064 103.321 85.4301 101.845 85.3886C97.1208 85.2464 92.6815 84.0432 88.5918 81.6724C81.2956 77.4345 76.9689 64.3713 80.614 56.7491C82.1432 53.5485 84.1228 50.5909 84.6563 46.9932C84.7333 46.4894 85.0593 46.1278 85.5631 45.9204C88.5622 44.6639 89.2912 41.7715 89.5342 39.1458C89.7535 36.775 92.7645 33.7759 88.7281 31.7547C88.574 31.6777 88.74 30.8597 88.8289 30.3974C89.5994 26.3611 89.4157 22.3426 88.6155 18.3418C86.2566 6.60032 77.8105 0.0509297 65.9801 0.77403C55.0803 1.43786 47.9263 9.03634 47.0017 20.8608C46.7291 24.3281 46.9661 27.7599 47.3988 31.1917C47.4521 31.6303 48.1812 32.6971 46.8891 32.3949C44.5479 31.8377 45.1702 33.5447 45.354 34.4693C45.9941 37.6521 46.6224 40.8528 48.193 43.7629C48.6257 44.5631 49.0347 45.4818 49.8704 45.7544C51.281 46.2049 51.5359 47.2955 51.7433 48.4512C52.1819 50.9287 53.231 53.1336 54.6772 55.1607C55.43 56.2098 56.0819 57.2648 56.0582 58.6576C55.993 61.9116 56.0582 65.1478 55.6374 68.4017C54.5824 76.4803 49.8822 81.2575 42.4082 83.7765C38.7038 85.0271 34.8868 85.2227 31.0401 85.442C20.5789 86.0406 15.6891 90.6874 14.4029 101.048C13.9643 104.598 13.9821 108.137 14.3021 111.681C15.1853 121.603 16.5011 131.483 16.264 141.494C15.9617 154.374 15.2208 167.099 10.005 179.184C8.00761 183.813 7.27859 188.869 6.99409 193.913C6.40731 204.457 5.69013 214.995 4.42767 225.48C3.22448 235.456 1.45821 245.378 2.18724 255.501C2.30578 257.143 1.86719 258.826 1.63603 260.486C1.2567 263.212 -0.11244 266.241 0.646223 268.594C2.10428 273.116 3.35488 277.745 5.19819 282.155C5.7257 282.611 6.2532 283.068 6.78071 283.524C7.50381 284.295 8.23284 285.065 8.95594 285.842C11.4749 288.912 14.2014 291.763 17.2301 294.631C18.1666 291.33 15.8373 289.653 14.3851 287.098C15.6357 287.632 16.3114 288.023 17.0404 288.212C17.9651 288.455 18.8956 290.032 19.755 288.805C20.4841 287.762 19.5061 286.582 18.7119 285.682C18.3918 285.314 18.0362 284.917 17.6094 284.721C14.7763 283.411 12.7433 281.112 10.4673 279.102C10.5859 279.399 10.1176 279.5 9.93984 279.76C9.96947 279.606 10.1236 279.399 10.4673 279.102C8.85518 275.641 9.12191 271.984 9.44197 268.345C9.50716 267.598 9.70276 266.508 10.6096 266.502C11.5224 266.496 11.5401 267.586 11.7654 268.315C12.3936 270.33 12.447 272.399 12.3936 274.473C12.3521 276.18 12.6248 277.816 13.2531 279.399C13.5553 280.163 13.9821 280.904 14.8711 280.934C15.9617 280.97 16.3351 280.051 16.6137 279.197C17.1531 277.55 16.999 275.86 16.6611 274.219C15.9499 270.811 15.7246 267.414 16.1336 263.929C16.6907 259.194 15.5942 254.707 13.4012 250.499C12.7078 249.171 12.1566 247.855 12.1269 246.308C12.0499 242.343 12.1506 238.39 13.1108 234.537C17.0167 218.818 22.3155 203.55 28.0055 188.413C29.3806 184.762 30.4593 181.164 29.748 177.181C28.8945 172.38 29.1257 167.532 29.6354 162.713C30.5067 154.569 31.4787 146.431 31.8284 138.24C32.0122 138.163 32.0655 138.009 32.0655 137.825C32.3204 137.381 32.5752 136.936 32.8301 136.486C34.5549 145.187 36.3745 153.87 38.935 162.369C42.0822 172.819 41.0806 182.557 35.7166 192.271C20.8397 219.204 17.4968 247.944 23.3705 277.941C26.4822 293.831 31.7632 309.159 35.6573 324.848C39.0002 338.302 40.1441 351.916 38.3245 365.649C36.5582 378.967 36.1137 392.149 39.421 405.319C42.8053 418.797 47.3277 431.967 50.3149 445.546C52.1345 453.814 54.292 462.071 52.259 470.677C51.9626 471.939 52.3242 473.439 52.6798 474.749C53.148 476.461 52.911 478.014 52.4012 479.662C50.7535 484.991 47.8611 489.578 44.2812 493.786C43.7952 494.948 43.3684 496.11 44.1686 497.319L44.299 497.254C46.5394 499.458 55.4003 501.45 57.8778 499.731C59.5078 498.599 59.9582 499.79 60.9184 500.146C62.981 500.644 65.0081 500.822 66.8929 499.553C67.2959 499.198 67.6101 498.783 67.7997 498.279C68.5762 495.665 67.7464 493.152 67.3256 490.615C66.8158 487.806 66.9225 484.979 67.1181 482.157C67.3078 479.449 68.1968 476.799 67.9005 474.037C67.8827 471.702 67.8946 469.361 67.8946 467.026C67.9894 465.822 67.7582 464.649 67.4145 463.523C64.9962 455.687 64.4746 447.644 64.6347 439.512C64.8066 430.634 64.0064 421.707 65.4052 412.9C66.9521 403.168 66.5313 393.643 63.9234 384.16C61.3748 374.89 61.7482 365.62 64.0538 356.35C65.6956 349.741 65.6423 343.014 64.8658 336.328C63.6863 326.134 61.9971 315.981 62.3113 305.679C62.4832 299.966 62.8684 294.258 63.2655 288.55C63.8108 280.75 63.473 272.968 62.5365 265.204C62.2283 262.643 62.0031 260.065 62.5958 257.54C63.1529 255.145 64.5991 253.409 67.1952 253.16C69.649 252.923 71.3026 254.274 72.4465 256.319C73.3415 257.919 73.466 259.691 73.5193 261.481C73.6201 264.753 72.9029 267.954 72.8911 271.225C72.8436 281.787 73.383 292.32 73.9579 302.864C74.5092 313.023 73.306 323.164 71.6049 333.211C70.2417 341.277 69.7379 349.385 72.0613 357.292C74.8114 366.639 74.2721 375.838 71.8775 385.055C69.7319 393.323 69.5304 401.638 70.8107 410.019C72.5947 421.696 72.5117 433.419 71.6345 445.149C71.2019 450.951 70.6862 456.76 68.7777 462.337C68.1376 464.21 67.942 466.19 67.9064 468.175C67.9005 469.432 67.9064 470.689 67.9064 471.945C68.7777 479.941 69.0207 487.948 68.2798 495.973C68.2028 496.845 68.2443 497.74 68.5465 498.593C68.6769 498.913 68.8725 499.18 69.1333 499.405C72.6362 502.309 76.5006 499.417 80.2584 499.95C83.5597 500.419 87.4242 499.66 90.8382 498.326C91.2708 498.125 91.6206 497.823 91.8873 497.425C92.0354 497.147 92.1421 496.851 92.1895 496.536C92.314 495.718 92.0532 495.001 91.6205 494.332C90.9508 492.737 89.9906 491.368 88.9889 489.94C85.5394 484.991 81.6927 479.935 83.6605 473.154C84.0458 471.815 83.9924 470.422 83.5597 469.065C82.2973 465.105 82.4218 461.087 83.0856 457.05C85.5098 442.215 89.961 427.889 94.3055 413.558C98.6737 399.155 100.185 384.669 97.6898 369.721C95.4613 356.356 95.9888 342.955 98.7745 329.69C100.95 319.353 104.63 309.431 107.321 299.231C111.067 285.012 115.038 270.799 115.21 255.969C115.483 232.474 110.836 210.088 98.9286 189.557C94.2166 181.425 93.5943 172.967 96.4215 164.165C98.6026 157.379 99.8592 150.397 101.128 143.409C101.619 140.706 101.756 137.873 103.255 134.779C103.676 139.514 104.026 143.616 104.399 147.718C105.211 156.555 107.167 165.374 106.177 174.253C105.573 179.67 106.462 184.548 108.228 189.563C112.472 201.63 116.467 213.792 120.562 225.913C121.487 230.347 122.601 234.75 123.277 239.219C123.97 243.801 124.249 248.371 121.528 252.656C119.092 256.491 119.092 260.912 119.484 265.292C119.733 268.066 119.656 270.787 119.057 273.531C118.701 275.155 118.583 276.85 118.595 278.516C118.6 279.547 118.784 280.892 120.201 280.975C121.487 281.052 121.991 279.914 122.376 278.883C123.016 277.188 123.087 275.41 123.04 273.626C122.992 271.842 123.052 270.082 123.52 268.339C123.727 267.574 123.864 266.508 124.688 266.484C125.778 266.454 125.778 267.651 125.986 268.463C127.687 275.208 125.909 279.612 119.97 283.299C118.535 284.188 117.059 285.018 116.147 286.488C115.708 287.193 114.778 288.04 115.536 288.841C116.36 289.706 117.409 289.001 118.209 288.467C118.915 287.999 119.371 287.027 120.438 287.697C119.644 289.943 117.617 291.727 118.334 294.863C119.733 293.796 120.728 292.344 121.896 291.034C124.267 288.384 126.792 285.883 129.133 283.21C133.145 278.628 133.086 272.512 134.989 267.13C135.042 266.976 134.894 266.751 134.858 266.561ZM129.921 223.696C129.921 223.335 129.862 222.914 129.761 222.398C130.081 222.825 130.093 223.258 129.921 223.696Z"/>
</mask>
<path d="M134.858 266.561C133.697 260.041 132.588 253.539 133.525 246.859C133.75 245.235 133.572 243.493 133.27 241.863C130.603 227.567 129.423 213.128 128.759 198.625C128.623 195.596 128.712 192.52 127.787 189.568C127.651 185.662 126.353 182.041 125.002 178.449C123.235 173.737 121.268 169.079 120.622 164.052C118.826 150.106 118.28 136.13 119.916 122.124C120.651 115.848 121.457 109.583 121.143 103.241C120.616 92.7322 116.034 87.2853 106.272 85.6494C104.82 85.4064 103.321 85.4301 101.845 85.3886C97.1208 85.2464 92.6815 84.0432 88.5918 81.6724C81.2956 77.4345 76.9689 64.3713 80.614 56.7491C82.1432 53.5485 84.1228 50.5909 84.6563 46.9932C84.7333 46.4894 85.0593 46.1278 85.5631 45.9204C88.5622 44.6639 89.2912 41.7715 89.5342 39.1458C89.7535 36.775 92.7645 33.7759 88.7281 31.7547C88.574 31.6777 88.74 30.8597 88.8289 30.3974C89.5994 26.3611 89.4157 22.3426 88.6155 18.3418C86.2566 6.60032 77.8105 0.0509297 65.9801 0.77403C55.0803 1.43786 47.9263 9.03634 47.0017 20.8608C46.7291 24.3281 46.9661 27.7599 47.3988 31.1917C47.4521 31.6303 48.1812 32.6971 46.8891 32.3949C44.5479 31.8377 45.1702 33.5447 45.354 34.4693C45.9941 37.6521 46.6224 40.8528 48.193 43.7629C48.6257 44.5631 49.0347 45.4818 49.8704 45.7544C51.281 46.2049 51.5359 47.2955 51.7433 48.4512C52.1819 50.9287 53.231 53.1336 54.6772 55.1607C55.43 56.2098 56.0819 57.2648 56.0582 58.6576C55.993 61.9116 56.0582 65.1478 55.6374 68.4017C54.5824 76.4803 49.8822 81.2575 42.4082 83.7765C38.7038 85.0271 34.8868 85.2227 31.0401 85.442C20.5789 86.0406 15.6891 90.6874 14.4029 101.048C13.9643 104.598 13.9821 108.137 14.3021 111.681C15.1853 121.603 16.5011 131.483 16.264 141.494C15.9617 154.374 15.2208 167.099 10.005 179.184C8.00761 183.813 7.27859 188.869 6.99409 193.913C6.40731 204.457 5.69013 214.995 4.42767 225.48C3.22448 235.456 1.45821 245.378 2.18724 255.501C2.30578 257.143 1.86719 258.826 1.63603 260.486C1.2567 263.212 -0.11244 266.241 0.646223 268.594C2.10428 273.116 3.35488 277.745 5.19819 282.155C5.7257 282.611 6.2532 283.068 6.78071 283.524C7.50381 284.295 8.23284 285.065 8.95594 285.842C11.4749 288.912 14.2014 291.763 17.2301 294.631C18.1666 291.33 15.8373 289.653 14.3851 287.098C15.6357 287.632 16.3114 288.023 17.0404 288.212C17.9651 288.455 18.8956 290.032 19.755 288.805C20.4841 287.762 19.5061 286.582 18.7119 285.682C18.3918 285.314 18.0362 284.917 17.6094 284.721C14.7763 283.411 12.7433 281.112 10.4673 279.102C10.5859 279.399 10.1176 279.5 9.93984 279.76C9.96947 279.606 10.1236 279.399 10.4673 279.102C8.85518 275.641 9.12191 271.984 9.44197 268.345C9.50716 267.598 9.70276 266.508 10.6096 266.502C11.5224 266.496 11.5401 267.586 11.7654 268.315C12.3936 270.33 12.447 272.399 12.3936 274.473C12.3521 276.18 12.6248 277.816 13.2531 279.399C13.5553 280.163 13.9821 280.904 14.8711 280.934C15.9617 280.97 16.3351 280.051 16.6137 279.197C17.1531 277.55 16.999 275.86 16.6611 274.219C15.9499 270.811 15.7246 267.414 16.1336 263.929C16.6907 259.194 15.5942 254.707 13.4012 250.499C12.7078 249.171 12.1566 247.855 12.1269 246.308C12.0499 242.343 12.1506 238.39 13.1108 234.537C17.0167 218.818 22.3155 203.55 28.0055 188.413C29.3806 184.762 30.4593 181.164 29.748 177.181C28.8945 172.38 29.1257 167.532 29.6354 162.713C30.5067 154.569 31.4787 146.431 31.8284 138.24C32.0122 138.163 32.0655 138.009 32.0655 137.825C32.3204 137.381 32.5752 136.936 32.8301 136.486C34.5549 145.187 36.3745 153.87 38.935 162.369C42.0822 172.819 41.0806 182.557 35.7166 192.271C20.8397 219.204 17.4968 247.944 23.3705 277.941C26.4822 293.831 31.7632 309.159 35.6573 324.848C39.0002 338.302 40.1441 351.916 38.3245 365.649C36.5582 378.967 36.1137 392.149 39.421 405.319C42.8053 418.797 47.3277 431.967 50.3149 445.546C52.1345 453.814 54.292 462.071 52.259 470.677C51.9626 471.939 52.3242 473.439 52.6798 474.749C53.148 476.461 52.911 478.014 52.4012 479.662C50.7535 484.991 47.8611 489.578 44.2812 493.786C43.7952 494.948 43.3684 496.11 44.1686 497.319L44.299 497.254C46.5394 499.458 55.4003 501.45 57.8778 499.731C59.5078 498.599 59.9582 499.79 60.9184 500.146C62.981 500.644 65.0081 500.822 66.8929 499.553C67.2959 499.198 67.6101 498.783 67.7997 498.279C68.5762 495.665 67.7464 493.152 67.3256 490.615C66.8158 487.806 66.9225 484.979 67.1181 482.157C67.3078 479.449 68.1968 476.799 67.9005 474.037C67.8827 471.702 67.8946 469.361 67.8946 467.026C67.9894 465.822 67.7582 464.649 67.4145 463.523C64.9962 455.687 64.4746 447.644 64.6347 439.512C64.8066 430.634 64.0064 421.707 65.4052 412.9C66.9521 403.168 66.5313 393.643 63.9234 384.16C61.3748 374.89 61.7482 365.62 64.0538 356.35C65.6956 349.741 65.6423 343.014 64.8658 336.328C63.6863 326.134 61.9971 315.981 62.3113 305.679C62.4832 299.966 62.8684 294.258 63.2655 288.55C63.8108 280.75 63.473 272.968 62.5365 265.204C62.2283 262.643 62.0031 260.065 62.5958 257.54C63.1529 255.145 64.5991 253.409 67.1952 253.16C69.649 252.923 71.3026 254.274 72.4465 256.319C73.3415 257.919 73.466 259.691 73.5193 261.481C73.6201 264.753 72.9029 267.954 72.8911 271.225C72.8436 281.787 73.383 292.32 73.9579 302.864C74.5092 313.023 73.306 323.164 71.6049 333.211C70.2417 341.277 69.7379 349.385 72.0613 357.292C74.8114 366.639 74.2721 375.838 71.8775 385.055C69.7319 393.323 69.5304 401.638 70.8107 410.019C72.5947 421.696 72.5117 433.419 71.6345 445.149C71.2019 450.951 70.6862 456.76 68.7777 462.337C68.1376 464.21 67.942 466.19 67.9064 468.175C67.9005 469.432 67.9064 470.689 67.9064 471.945C68.7777 479.941 69.0207 487.948 68.2798 495.973C68.2028 496.845 68.2443 497.74 68.5465 498.593C68.6769 498.913 68.8725 499.18 69.1333 499.405C72.6362 502.309 76.5006 499.417 80.2584 499.95C83.5597 500.419 87.4242 499.66 90.8382 498.326C91.2708 498.125 91.6206 497.823 91.8873 497.425C92.0354 497.147 92.1421 496.851 92.1895 496.536C92.314 495.718 92.0532 495.001 91.6205 494.332C90.9508 492.737 89.9906 491.368 88.9889 489.94C85.5394 484.991 81.6927 479.935 83.6605 473.154C84.0458 471.815 83.9924 470.422 83.5597 469.065C82.2973 465.105 82.4218 461.087 83.0856 457.05C85.5098 442.215 89.961 427.889 94.3055 413.558C98.6737 399.155 100.185 384.669 97.6898 369.721C95.4613 356.356 95.9888 342.955 98.7745 329.69C100.95 319.353 104.63 309.431 107.321 299.231C111.067 285.012 115.038 270.799 115.21 255.969C115.483 232.474 110.836 210.088 98.9286 189.557C94.2166 181.425 93.5943 172.967 96.4215 164.165C98.6026 157.379 99.8592 150.397 101.128 143.409C101.619 140.706 101.756 137.873 103.255 134.779C103.676 139.514 104.026 143.616 104.399 147.718C105.211 156.555 107.167 165.374 106.177 174.253C105.573 179.67 106.462 184.548 108.228 189.563C112.472 201.63 116.467 213.792 120.562 225.913C121.487 230.347 122.601 234.75 123.277 239.219C123.97 243.801 124.249 248.371 121.528 252.656C119.092 256.491 119.092 260.912 119.484 265.292C119.733 268.066 119.656 270.787 119.057 273.531C118.701 275.155 118.583 276.85 118.595 278.516C118.6 279.547 118.784 280.892 120.201 280.975C121.487 281.052 121.991 279.914 122.376 278.883C123.016 277.188 123.087 275.41 123.04 273.626C122.992 271.842 123.052 270.082 123.52 268.339C123.727 267.574 123.864 266.508 124.688 266.484C125.778 266.454 125.778 267.651 125.986 268.463C127.687 275.208 125.909 279.612 119.97 283.299C118.535 284.188 117.059 285.018 116.147 286.488C115.708 287.193 114.778 288.04 115.536 288.841C116.36 289.706 117.409 289.001 118.209 288.467C118.915 287.999 119.371 287.027 120.438 287.697C119.644 289.943 117.617 291.727 118.334 294.863C119.733 293.796 120.728 292.344 121.896 291.034C124.267 288.384 126.792 285.883 129.133 283.21C133.145 278.628 133.086 272.512 134.989 267.13C135.042 266.976 134.894 266.751 134.858 266.561ZM129.921 223.696C129.921 223.335 129.862 222.914 129.761 222.398C130.081 222.825 130.093 223.258 129.921 223.696Z" fill="#EFCDDF"/>
<path d="M134.858 266.561L133.874 266.736L133.876 266.745L134.858 266.561ZM133.525 246.859L134.515 246.998L134.515 246.997L133.525 246.859ZM133.27 241.863L134.253 241.68L134.253 241.679L133.27 241.863ZM128.759 198.625L127.76 198.67L127.76 198.671L128.759 198.625ZM127.787 189.568L126.788 189.603L126.793 189.738L126.833 189.867L127.787 189.568ZM125.002 178.449L124.065 178.8L124.066 178.801L125.002 178.449ZM120.622 164.052L121.613 163.925L121.613 163.925L120.622 164.052ZM119.916 122.124L118.923 122.008L118.923 122.008L119.916 122.124ZM121.143 103.241L122.142 103.191L122.142 103.191L121.143 103.241ZM106.272 85.6494L106.437 84.6632L106.437 84.6631L106.272 85.6494ZM101.845 85.3886L101.815 86.3882L101.817 86.3882L101.845 85.3886ZM88.5918 81.6724L88.0896 82.5371L88.0903 82.5375L88.5918 81.6724ZM80.614 56.7491L81.5162 57.1805L81.5163 57.1802L80.614 56.7491ZM84.6563 46.9932L83.6677 46.842L83.6671 46.8465L84.6563 46.9932ZM85.5631 45.9204L85.9438 46.8451L85.9495 46.8427L85.5631 45.9204ZM89.5342 39.1458L90.53 39.2379L90.53 39.2379L89.5342 39.1458ZM88.7281 31.7547L89.1759 30.8606L89.1754 30.8603L88.7281 31.7547ZM88.8289 30.3974L89.8109 30.5863L89.8112 30.5849L88.8289 30.3974ZM88.6155 18.3418L89.5961 18.1457L89.5959 18.1448L88.6155 18.3418ZM65.9801 0.77403L66.0409 1.77218L66.0411 1.77217L65.9801 0.77403ZM47.0017 20.8608L47.9986 20.9392L47.9987 20.9388L47.0017 20.8608ZM47.3988 31.1917L48.3915 31.0709L48.3909 31.0666L47.3988 31.1917ZM46.8891 32.3949L46.6576 33.3677L46.6613 33.3686L46.8891 32.3949ZM45.354 34.4693L44.3732 34.6642L44.3736 34.6665L45.354 34.4693ZM48.193 43.7629L47.313 44.2379L47.3134 44.2386L48.193 43.7629ZM49.8704 45.7544L49.5602 46.7051L49.5662 46.707L49.8704 45.7544ZM51.7433 48.4512L52.728 48.2769L52.7276 48.2746L51.7433 48.4512ZM54.6772 55.1607L53.8632 55.7415L53.8647 55.7436L54.6772 55.1607ZM56.0582 58.6576L57.058 58.6777L57.0581 58.6746L56.0582 58.6576ZM55.6374 68.4017L56.629 68.5312L56.6292 68.53L55.6374 68.4017ZM42.4082 83.7765L42.0888 82.8288L42.0884 82.829L42.4082 83.7765ZM31.0401 85.442L30.9832 84.4436L30.983 84.4436L31.0401 85.442ZM14.4029 101.048L13.4105 100.925L13.4105 100.925L14.4029 101.048ZM14.3021 111.681L15.2982 111.592L15.2981 111.591L14.3021 111.681ZM16.264 141.494L15.2643 141.47L15.2643 141.471L16.264 141.494ZM10.005 179.184L9.08689 178.788L9.08686 178.788L10.005 179.184ZM6.99409 193.913L5.99568 193.857L5.99564 193.857L6.99409 193.913ZM4.42767 225.48L5.42047 225.6L5.4205 225.6L4.42767 225.48ZM2.18724 255.501L1.18983 255.573L1.18984 255.573L2.18724 255.501ZM1.63603 260.486L0.645592 260.348L0.645571 260.348L1.63603 260.486ZM0.646223 268.594L1.59798 268.287H1.59798L0.646223 268.594ZM5.19819 282.155L4.27556 282.541L4.36619 282.757L4.54391 282.911L5.19819 282.155ZM6.78071 283.524L7.5099 282.84L7.47431 282.802L7.43499 282.768L6.78071 283.524ZM8.95594 285.842L9.72904 285.207L9.70913 285.183L9.68774 285.16L8.95594 285.842ZM17.2301 294.631L16.5424 295.357L17.7415 296.493L18.1921 294.904L17.2301 294.631ZM14.3851 287.098L14.7775 286.178L12.0509 285.015L13.5158 287.592L14.3851 287.098ZM17.0404 288.212L17.2946 287.245L17.2922 287.245L17.0404 288.212ZM19.755 288.805L20.5741 289.379L20.5747 289.378L19.755 288.805ZM18.7119 285.682L17.9578 286.338L17.9617 286.343L18.7119 285.682ZM17.6094 284.721L17.1898 285.629L17.1928 285.63L17.6094 284.721ZM9.93984 279.76L8.95783 279.572L10.7661 280.324L9.93984 279.76ZM9.44197 268.345L10.4381 268.432L10.4382 268.432L9.44197 268.345ZM10.6096 266.502L10.6031 265.502H10.6031L10.6096 266.502ZM11.7654 268.315L10.8099 268.61L10.8107 268.613L11.7654 268.315ZM12.3936 274.473L11.394 274.448L11.3939 274.449L12.3936 274.473ZM13.2531 279.399L14.183 279.031L14.1825 279.03L13.2531 279.399ZM14.8711 280.934L14.8378 281.933H14.8386L14.8711 280.934ZM16.6137 279.197L15.6633 278.886L15.6631 278.887L16.6137 279.197ZM16.6611 274.219L17.6406 274.017L17.64 274.014L16.6611 274.219ZM16.1336 263.929L15.1404 263.812L15.1404 263.813L16.1336 263.929ZM13.4012 250.499L14.288 250.036L14.2876 250.036L13.4012 250.499ZM12.1269 246.308L13.1267 246.289L13.1267 246.289L12.1269 246.308ZM13.1108 234.537L14.0811 234.779L14.0813 234.778L13.1108 234.537ZM28.0055 188.413L27.0697 188.06L27.0694 188.061L28.0055 188.413ZM29.748 177.181L28.7635 177.356L28.7636 177.357L29.748 177.181ZM29.6354 162.713L28.6411 162.607L28.641 162.608L29.6354 162.713ZM31.8284 138.24L31.4417 137.318L30.8564 137.563L30.8293 138.198L31.8284 138.24ZM32.0655 137.825L31.198 137.328L31.0655 137.559V137.825H32.0655ZM32.8301 136.486L33.811 136.291L33.287 133.648L31.9598 135.993L32.8301 136.486ZM38.935 162.369L39.8925 162.081L39.8925 162.081L38.935 162.369ZM35.7166 192.271L36.5919 192.755L36.592 192.755L35.7166 192.271ZM23.3705 277.941L22.3892 278.133L22.3892 278.133L23.3705 277.941ZM35.6573 324.848L34.6868 325.088L34.6868 325.089L35.6573 324.848ZM38.3245 365.649L39.3158 365.781L39.3158 365.781L38.3245 365.649ZM39.421 405.319L40.3909 405.076L40.3909 405.076L39.421 405.319ZM50.3149 445.546L49.3383 445.761L49.3383 445.761L50.3149 445.546ZM52.259 470.677L51.2858 470.447L51.2855 470.448L52.259 470.677ZM52.6798 474.749L51.7147 475.011L51.7152 475.012L52.6798 474.749ZM52.4012 479.662L51.4459 479.367L51.4459 479.367L52.4012 479.662ZM44.2812 493.786L43.5195 493.138L43.4187 493.257L43.3587 493.4L44.2812 493.786ZM44.1686 497.319L43.3346 497.871L43.8235 498.609L44.6157 498.213L44.1686 497.319ZM44.299 497.254L45.0004 496.541L44.491 496.04L43.8518 496.359L44.299 497.254ZM57.8778 499.731L58.4479 500.553L58.4483 500.552L57.8778 499.731ZM60.9184 500.146L60.5711 501.084L60.6264 501.104L60.6838 501.118L60.9184 500.146ZM66.8929 499.553L67.4512 500.383L67.5055 500.346L67.5545 500.303L66.8929 499.553ZM67.7997 498.279L68.7356 498.631L68.7482 498.598L68.7583 498.564L67.7997 498.279ZM67.3256 490.615L68.3121 490.452L68.3109 490.444L68.3095 490.437L67.3256 490.615ZM67.1181 482.157L66.1206 482.088L66.1205 482.088L67.1181 482.157ZM67.9005 474.037L66.9005 474.045L66.9009 474.095L66.9062 474.144L67.9005 474.037ZM67.8946 467.026L66.8977 466.947L66.8946 466.986V467.026H67.8946ZM67.4145 463.523L68.3709 463.231L68.37 463.228L67.4145 463.523ZM64.6347 439.512L65.6345 439.532L65.6345 439.532L64.6347 439.512ZM65.4052 412.9L64.4176 412.743L64.4176 412.743L65.4052 412.9ZM63.9234 384.16L62.9592 384.425L62.9592 384.425L63.9234 384.16ZM64.0538 356.35L65.0243 356.591L65.0243 356.591L64.0538 356.35ZM64.8658 336.328L63.8725 336.443L63.8725 336.444L64.8658 336.328ZM62.3113 305.679L63.3108 305.71L63.3108 305.709L62.3113 305.679ZM63.2655 288.55L62.268 288.48L62.2679 288.481L63.2655 288.55ZM62.5365 265.204L61.5437 265.323L61.5437 265.323L62.5365 265.204ZM62.5958 257.54L63.5693 257.768L63.5698 257.767L62.5958 257.54ZM67.1952 253.16L67.2906 254.155L67.2913 254.155L67.1952 253.16ZM72.4465 256.319L73.3193 255.831L73.3193 255.831L72.4465 256.319ZM73.5193 261.481L72.5198 261.511L72.5198 261.512L73.5193 261.481ZM72.8911 271.225L73.891 271.23L73.8911 271.229L72.8911 271.225ZM73.9579 302.864L74.9565 302.81L74.9565 302.81L73.9579 302.864ZM71.6049 333.211L70.6189 333.044L70.6189 333.044L71.6049 333.211ZM72.0613 357.292L71.1018 357.574L71.1019 357.574L72.0613 357.292ZM71.8775 385.055L70.9097 384.803L70.9096 384.803L71.8775 385.055ZM70.8107 410.019L69.8221 410.17L69.8221 410.17L70.8107 410.019ZM71.6345 445.149L70.6373 445.074L70.6373 445.075L71.6345 445.149ZM68.7777 462.337L67.8315 462.014L67.8314 462.014L68.7777 462.337ZM67.9064 468.175L66.9065 468.158L66.9064 468.171L67.9064 468.175ZM67.9064 471.945H66.9064V471.999L66.9123 472.053L67.9064 471.945ZM68.2798 495.973L67.284 495.881L67.2837 495.885L68.2798 495.973ZM68.5465 498.593L67.6039 498.927L67.6117 498.949L67.6204 498.97L68.5465 498.593ZM69.1333 499.405L68.4797 500.162L68.4873 500.169L68.495 500.175L69.1333 499.405ZM80.2584 499.95L80.1178 500.94H80.118L80.2584 499.95ZM90.8382 498.326L91.202 499.258L91.2316 499.246L91.2604 499.233L90.8382 498.326ZM91.8873 497.425L92.7174 497.983L92.746 497.94L92.7701 497.895L91.8873 497.425ZM92.1895 496.536L91.2009 496.386L91.2007 496.387L92.1895 496.536ZM91.6205 494.332L90.6986 494.719L90.7327 494.8L90.7806 494.874L91.6205 494.332ZM88.9889 489.94L88.1685 490.511L88.1702 490.514L88.9889 489.94ZM83.6605 473.154L84.6209 473.433L84.6216 473.431L83.6605 473.154ZM83.5597 469.065L84.5125 468.761L84.5125 468.761L83.5597 469.065ZM83.0856 457.05L84.0723 457.213L84.0725 457.212L83.0856 457.05ZM94.3055 413.558L93.3485 413.267L93.3485 413.268L94.3055 413.558ZM97.6898 369.721L96.7035 369.886L96.7035 369.886L97.6898 369.721ZM98.7745 329.69L97.7959 329.484L97.7958 329.484L98.7745 329.69ZM107.321 299.231L108.288 299.486L108.288 299.486L107.321 299.231ZM115.21 255.969L114.21 255.958L115.21 255.969ZM98.9286 189.557L98.0634 190.058L98.0635 190.058L98.9286 189.557ZM96.4215 164.165L95.4694 163.859L95.4694 163.859L96.4215 164.165ZM101.128 143.409L100.144 143.229L100.144 143.23L101.128 143.409ZM103.255 134.779L104.251 134.69L103.932 131.091L102.355 134.343L103.255 134.779ZM104.399 147.718L103.403 147.808L103.403 147.809L104.399 147.718ZM106.177 174.253L107.171 174.364L107.171 174.364L106.177 174.253ZM108.228 189.563L109.172 189.231L109.171 189.23L108.228 189.563ZM120.562 225.913L121.541 225.709L121.529 225.65L121.51 225.593L120.562 225.913ZM123.277 239.219L122.288 239.369L122.288 239.369L123.277 239.219ZM121.528 252.656L122.373 253.192L122.373 253.192L121.528 252.656ZM119.484 265.292L118.488 265.381L118.488 265.382L119.484 265.292ZM119.057 273.531L120.034 273.745L120.034 273.744L119.057 273.531ZM118.595 278.516L119.595 278.51L119.595 278.509L118.595 278.516ZM120.201 280.975L120.261 279.977L120.259 279.977L120.201 280.975ZM122.376 278.883L121.44 278.53L121.439 278.533L122.376 278.883ZM123.52 268.339L122.555 268.077L122.554 268.079L123.52 268.339ZM124.688 266.484L124.66 265.484L124.659 265.484L124.688 266.484ZM125.986 268.463L126.955 268.219L126.954 268.216L125.986 268.463ZM119.97 283.299L120.496 284.149L120.497 284.148L119.97 283.299ZM116.147 286.488L116.996 287.016L116.996 287.015L116.147 286.488ZM115.536 288.841L114.811 289.529L114.812 289.53L115.536 288.841ZM118.209 288.467L117.656 287.634L117.655 287.635L118.209 288.467ZM120.438 287.697L121.381 288.03L121.647 287.275L120.97 286.85L120.438 287.697ZM118.334 294.863L117.359 295.085L117.705 296.6L118.94 295.658L118.334 294.863ZM121.896 291.034L121.151 290.367L121.149 290.368L121.896 291.034ZM129.133 283.21L129.885 283.869V283.869L129.133 283.21ZM134.989 267.13L135.932 267.463L135.934 267.457L134.989 267.13ZM129.921 223.696H128.921L130.852 224.061L129.921 223.696ZM129.761 222.398L130.561 221.798L128.78 222.59L129.761 222.398ZM135.843 266.385C134.678 259.848 133.604 253.497 134.515 246.998L132.535 246.72C131.573 253.581 132.715 260.235 133.874 266.736L135.843 266.385ZM134.515 246.997C134.762 245.218 134.564 243.354 134.253 241.68L132.287 242.045C132.581 243.631 132.738 245.252 132.534 246.722L134.515 246.997ZM134.253 241.679C131.598 227.448 130.421 213.062 129.758 198.579L127.76 198.671C128.425 213.195 129.608 227.685 132.287 242.046L134.253 241.679ZM129.758 198.58C129.627 195.655 129.717 192.383 128.742 189.27L126.833 189.867C127.707 192.657 127.619 195.538 127.76 198.67L129.758 198.58ZM128.787 189.534C128.644 185.443 127.285 181.678 125.938 178.097L124.066 178.801C125.421 182.404 126.658 185.882 126.788 189.603L128.787 189.534ZM125.938 178.098C124.15 173.327 122.241 168.806 121.613 163.925L119.63 164.18C120.294 169.351 122.321 174.148 124.065 178.8L125.938 178.098ZM121.613 163.925C119.825 150.036 119.286 136.145 120.91 122.241L118.923 122.008C117.275 136.116 117.826 150.176 119.63 164.18L121.613 163.925ZM120.91 122.241C121.641 115.989 122.461 109.634 122.142 103.191L120.144 103.29C120.454 109.532 119.661 115.706 118.923 122.008L120.91 122.241ZM122.142 103.191C121.872 97.8107 120.558 93.5792 117.935 90.4727C115.304 87.3573 111.47 85.5066 106.437 84.6632L106.107 86.6357C110.836 87.4281 114.174 89.1188 116.407 91.763C118.647 94.4162 119.887 98.1625 120.144 103.291L122.142 103.191ZM106.437 84.6631C104.896 84.4052 103.287 84.4288 101.873 84.389L101.817 86.3882C103.354 86.4315 104.744 86.4076 106.107 86.6357L106.437 84.6631ZM101.875 84.3891C97.3077 84.2516 93.0318 83.0904 89.0933 80.8072L88.0903 82.5375C92.3312 84.996 96.934 86.2412 101.815 86.3882L101.875 84.3891ZM89.0941 80.8076C85.7298 78.8536 82.943 74.777 81.4512 70.1717C79.9588 65.5642 79.8433 60.6785 81.5162 57.1805L79.7119 56.3177C77.7395 60.4419 77.9649 65.8989 79.5486 70.788C81.1329 75.6793 84.1576 80.2533 88.0896 82.5371L89.0941 80.8076ZM81.5163 57.1802C81.8896 56.3989 82.2916 55.63 82.7022 54.8431C83.11 54.0618 83.5264 53.2629 83.9123 52.4481C84.6852 50.8164 85.3583 49.0766 85.6454 47.1399L83.6671 46.8465C83.4208 48.5075 82.8374 50.0453 82.1048 51.592C81.738 52.3664 81.3393 53.1319 80.9292 53.9177C80.5219 54.698 80.103 55.4991 79.7117 56.318L81.5163 57.1802ZM85.6448 47.1444C85.659 47.0511 85.6995 46.9457 85.9438 46.8451L85.1823 44.9957C84.4191 45.31 83.8076 45.9277 83.6677 46.842L85.6448 47.1444ZM85.9495 46.8427C89.5084 45.3517 90.2825 41.9115 90.53 39.2379L88.5385 39.0536C88.2999 41.6314 87.616 43.9761 85.1767 44.9981L85.9495 46.8427ZM90.53 39.2379C90.5701 38.8043 90.7452 38.297 91.001 37.6359C91.237 37.0262 91.5466 36.2744 91.7053 35.5267C91.8687 34.7563 91.9007 33.8752 91.4935 33.005C91.0867 32.1357 90.3136 31.4302 89.1759 30.8606L88.2804 32.6489C89.1609 33.0898 89.525 33.5172 89.682 33.8527C89.8386 34.1874 89.8609 34.5832 89.7488 35.1115C89.6319 35.6626 89.3999 36.2315 89.1358 36.9141C88.8915 37.5452 88.608 38.3019 88.5385 39.0537L90.53 39.2379ZM89.1754 30.8603C89.51 31.0276 89.613 31.3151 89.6349 31.382C89.6514 31.4323 89.6583 31.471 89.6613 31.4903C89.6644 31.5109 89.665 31.5235 89.6651 31.5254C89.6652 31.5277 89.6646 31.513 89.6669 31.4761C89.6691 31.4411 89.6733 31.3966 89.68 31.3423C89.7081 31.1124 89.7636 30.8325 89.8109 30.5863L87.8469 30.2086C87.8054 30.4246 87.7333 30.7849 87.6948 31.0988C87.6762 31.2507 87.6585 31.4428 87.6676 31.6249C87.672 31.7124 87.6846 31.8528 87.7343 32.0045C87.7762 32.1327 87.9077 32.4626 88.2809 32.6492L89.1754 30.8603ZM89.8112 30.5849C90.6108 26.3961 90.4159 22.2446 89.5961 18.1457L87.6349 18.5379C88.4155 22.4406 88.5881 26.3261 87.8466 30.2099L89.8112 30.5849ZM89.5959 18.1448C88.3775 12.0802 85.5684 7.27947 81.4626 4.09364C77.356 0.907172 72.0367 -0.598031 65.9191 -0.224107L66.0411 1.77217C71.7539 1.42299 76.5728 2.83093 80.2366 5.67376C83.9011 8.51723 86.4946 12.862 87.6351 18.5388L89.5959 18.1448ZM65.9193 -0.22412C60.2414 0.121682 55.4809 2.28241 52.023 5.94576C48.5712 9.60271 46.4813 14.6881 46.0047 20.7829L47.9987 20.9388C48.4467 15.209 50.3961 10.583 53.4774 7.3186C56.5526 4.06064 60.819 2.09021 66.0409 1.77218L65.9193 -0.22412ZM46.0048 20.7824C45.7247 24.3444 45.9697 27.8508 46.4067 31.3168L48.3909 31.0666C47.9626 27.669 47.7334 24.3119 47.9986 20.9392L46.0048 20.7824ZM46.4061 31.3124C46.4244 31.4629 46.4651 31.5996 46.4925 31.6857C46.5214 31.7761 46.5573 31.8751 46.5809 31.9414C46.6081 32.0183 46.6271 32.0741 46.6406 32.1212C46.6547 32.1704 46.6545 32.1817 46.6531 32.1673C46.6522 32.158 46.6425 32.0633 46.6885 31.9319C46.7439 31.774 46.86 31.6223 47.0248 31.528C47.1654 31.4476 47.2734 31.448 47.2735 31.448C47.277 31.448 47.2316 31.448 47.1169 31.4211L46.6613 33.3686C47.0117 33.4505 47.5479 33.5329 48.0179 33.2641C48.6437 32.9061 48.6717 32.2632 48.6438 31.9749C48.6163 31.6902 48.5143 31.4096 48.4659 31.273C48.3874 31.0517 48.3878 31.0407 48.3915 31.0709L46.4061 31.3124ZM47.1206 31.422C46.4672 31.2665 45.8381 31.2189 45.2981 31.4126C44.6658 31.6394 44.3261 32.1301 44.2026 32.6418C44.0961 33.0831 44.1484 33.5321 44.2011 33.8436C44.2473 34.1168 44.3488 34.5417 44.3732 34.6642L46.3348 34.2744C46.3087 34.1431 46.2741 33.9942 46.247 33.8733C46.2177 33.7427 46.1923 33.6235 46.1731 33.5099C46.1306 33.2588 46.1392 33.1425 46.1468 33.1111C46.1471 33.1095 46.1369 33.152 46.0926 33.2048C46.0446 33.2622 45.9929 33.2882 45.9733 33.2952C45.9693 33.2966 46.1404 33.2446 46.6576 33.3677L47.1206 31.422ZM44.3736 34.6665C45.0079 37.8205 45.6591 41.1735 47.313 44.2379L49.0731 43.288C47.5856 40.5321 46.9803 37.4838 46.3343 34.2722L44.3736 34.6665ZM47.3134 44.2386C47.5013 44.5861 47.7585 45.1077 48.0678 45.5391C48.3915 45.9906 48.8588 46.4763 49.5602 46.7051L50.1805 44.8037C50.0462 44.7599 49.8912 44.65 49.6933 44.3739C49.4811 44.0778 49.3174 43.7399 49.0727 43.2873L47.3134 44.2386ZM49.5662 46.707C50.0314 46.8556 50.2445 47.0759 50.3862 47.3282C50.5589 47.6354 50.6531 48.0378 50.7591 48.6279L52.7276 48.2746C52.6261 47.7089 52.4892 46.9881 52.1299 46.3485C51.7396 45.6539 51.1201 45.1037 50.1746 44.8018L49.5662 46.707ZM50.7587 48.6256C51.2283 51.2786 52.3495 53.6199 53.8632 55.7415L55.4913 54.5799C54.1125 52.6474 53.1356 50.5789 52.728 48.2769L50.7587 48.6256ZM53.8647 55.7436C54.605 56.7754 55.0761 57.5979 55.0584 58.6406L57.0581 58.6746C57.0878 56.9316 56.2549 55.6441 55.4897 54.5777L53.8647 55.7436ZM55.0584 58.6376C54.9922 61.945 55.0573 65.0907 54.6457 68.2734L56.6292 68.53C57.0592 65.2048 56.9939 61.8781 57.058 58.6777L55.0584 58.6376ZM54.6458 68.2722C54.1409 72.1387 52.7742 75.1586 50.6828 77.5092C48.5853 79.8668 45.7064 81.6096 42.0888 82.8288L42.7276 84.7241C46.5841 83.4243 49.7923 81.5191 52.1771 78.8386C54.568 76.1512 56.0789 72.7432 56.629 68.5312L54.6458 68.2722ZM42.0884 82.829C38.5346 84.0288 34.8573 84.2227 30.9832 84.4436L31.0971 86.4403C34.9164 86.2226 38.8731 86.0254 42.7281 84.7239L42.0884 82.829ZM30.983 84.4436C25.6259 84.7502 21.5227 86.1021 18.5957 88.8559C15.6695 91.6088 14.0689 95.6216 13.4105 100.925L15.3953 101.171C16.0231 96.1137 17.5105 92.6228 19.9661 90.3126C22.4208 88.0032 25.9932 86.7324 31.0973 86.4403L30.983 84.4436ZM13.4105 100.925C12.9615 104.559 12.9811 108.171 13.3062 111.771L15.2981 111.591C14.9831 108.103 14.9671 104.637 15.3954 101.171L13.4105 100.925ZM13.3061 111.77C14.1944 121.75 15.4996 131.534 15.2643 141.47L17.2637 141.518C17.5026 131.432 16.1761 121.456 15.2982 111.592L13.3061 111.77ZM15.2643 141.471C14.962 154.348 14.2185 166.898 9.08689 178.788L10.9232 179.58C16.2232 167.3 16.9614 154.399 17.2637 141.518L15.2643 141.471ZM9.08686 178.788C7.02188 183.574 6.28292 188.764 5.99568 193.857L7.9925 193.969C8.27426 188.974 8.99333 184.053 10.9232 179.58L9.08686 178.788ZM5.99564 193.857C5.4092 204.395 4.69341 214.908 3.43484 225.361L5.4205 225.6C6.68685 215.083 7.40542 204.519 7.99255 193.969L5.99564 193.857ZM3.43486 225.361C2.24097 235.259 0.451781 245.324 1.18983 255.573L3.18466 255.429C2.46465 245.431 4.20799 235.652 5.42047 225.6L3.43486 225.361ZM1.18984 255.573C1.24134 256.286 1.17328 257.034 1.05361 257.84C0.993829 258.243 0.923338 258.647 0.850848 259.068C0.779183 259.484 0.705863 259.915 0.645592 260.348L2.62647 260.624C2.68178 260.227 2.74996 259.825 2.82184 259.407C2.8929 258.995 2.96799 258.564 3.03193 258.133C3.15972 257.273 3.25169 256.357 3.18465 255.429L1.18984 255.573ZM0.645571 260.348C0.557857 260.978 0.410954 261.639 0.242538 262.337C0.0779439 263.02 -0.112637 263.758 -0.263916 264.473C-0.563552 265.887 -0.771016 267.457 -0.305531 268.901L1.59798 268.287C1.3048 267.378 1.40257 266.257 1.69267 264.887C1.83626 264.209 2.01168 263.532 2.18677 262.806C2.35805 262.096 2.52454 261.356 2.62649 260.623L0.645571 260.348ZM-0.305533 268.901C1.13274 273.362 2.41068 278.079 4.27556 282.541L6.12083 281.769C4.29908 277.411 3.07582 272.871 1.59798 268.287L-0.305533 268.901ZM4.54391 282.911C4.80766 283.139 5.07141 283.368 5.33517 283.596C5.59892 283.824 5.86267 284.052 6.12642 284.28L7.43499 282.768C7.17124 282.54 6.90749 282.311 6.64374 282.083C6.37999 281.855 6.11623 281.627 5.85248 281.399L4.54391 282.911ZM6.05152 284.208C6.77862 284.983 7.5025 285.748 8.22415 286.523L9.68774 285.16C8.96318 284.382 8.22899 283.606 7.5099 282.84L6.05152 284.208ZM8.18285 286.476C10.7342 289.586 13.4909 292.467 16.5424 295.357L17.9178 293.905C14.9119 291.058 12.2157 288.238 9.72904 285.207L8.18285 286.476ZM18.1921 294.904C18.7502 292.937 18.3179 291.417 17.5752 290.095C17.2195 289.462 16.7868 288.863 16.3862 288.305C15.9747 287.732 15.5874 287.19 15.2545 286.604L13.5158 287.592C13.9089 288.284 14.3573 288.909 14.7617 289.472C15.177 290.05 15.5404 290.556 15.8315 291.074C16.3823 292.055 16.6465 293.024 16.2681 294.358L18.1921 294.904ZM13.9928 288.018C14.6062 288.28 15.0548 288.496 15.4965 288.695C15.9225 288.888 16.3378 289.063 16.7887 289.18L17.2922 287.245C17.0141 287.172 16.727 287.057 16.3202 286.873C15.9292 286.696 15.4146 286.45 14.7775 286.178L13.9928 288.018ZM16.7862 289.18C16.8282 289.191 16.9323 289.238 17.1572 289.397C17.3232 289.514 17.6398 289.758 17.9108 289.919C18.192 290.087 18.6467 290.311 19.192 290.26C19.7967 290.203 20.251 289.84 20.5741 289.379L18.936 288.231C18.8294 288.384 18.8451 288.284 19.0047 288.269C19.1049 288.259 19.108 288.304 18.9336 288.201C18.749 288.091 18.6058 287.971 18.3104 287.763C18.0739 287.596 17.7149 287.356 17.2946 287.245L16.7862 289.18ZM20.5747 289.378C21.2183 288.457 21.0502 287.49 20.7098 286.765C20.3875 286.079 19.8478 285.458 19.462 285.02L17.9617 286.343C18.3702 286.806 18.7165 287.225 18.8995 287.615C19.0644 287.966 19.0208 288.11 18.9354 288.232L20.5747 289.378ZM19.466 285.025C19.1729 284.688 18.6819 284.113 18.0261 283.812L17.1928 285.63C17.3905 285.721 17.6107 285.94 17.9578 286.338L19.466 285.025ZM18.0291 283.814C16.7314 283.214 15.5952 282.377 14.4828 281.417C13.9261 280.937 13.3832 280.432 12.8279 279.913C12.2768 279.398 11.7112 278.867 11.1292 278.353L9.80552 279.852C10.3615 280.343 10.9035 280.852 11.4623 281.374C12.0167 281.893 12.5859 282.422 13.1761 282.931C14.3575 283.951 15.6543 284.919 17.1898 285.629L18.0291 283.814ZM9.53886 279.474C9.5068 279.394 9.48 279.282 9.48762 279.148C9.49528 279.014 9.5353 278.901 9.58135 278.816C9.6244 278.737 9.66967 278.688 9.68966 278.668C9.70971 278.647 9.7205 278.64 9.70866 278.649C9.69622 278.659 9.67955 278.671 9.64229 278.697C9.61084 278.719 9.56104 278.754 9.51041 278.792C9.41501 278.864 9.24982 278.997 9.11361 279.197L10.7661 280.324C10.7188 280.393 10.6788 280.416 10.7175 280.387C10.7339 280.374 10.7534 280.36 10.79 280.335C10.8208 280.313 10.871 280.278 10.9208 280.24C11.0029 280.178 11.2018 280.023 11.3385 279.771C11.5118 279.452 11.5351 279.079 11.3958 278.731L9.53886 279.474ZM10.9218 279.949C10.907 280.027 10.883 280.078 10.8721 280.099C10.8611 280.119 10.8572 280.121 10.8714 280.104C10.9021 280.065 10.9746 279.985 11.1203 279.86L9.8144 278.345C9.61628 278.516 9.43989 278.689 9.3002 278.866C9.16734 279.035 9.01532 279.273 8.95783 279.572L10.9218 279.949ZM11.3738 278.68C9.89039 275.495 10.1155 272.101 10.4381 268.432L8.44581 268.257C8.12836 271.867 7.81996 275.787 9.56083 279.525L11.3738 278.68ZM10.4382 268.432C10.4694 268.075 10.525 267.765 10.617 267.567C10.6586 267.477 10.6841 267.464 10.6694 267.475C10.6394 267.499 10.6068 267.502 10.6161 267.502L10.6031 265.502C9.62844 265.508 9.07113 266.148 8.80328 266.724C8.55453 267.259 8.47977 267.868 8.44576 268.258L10.4382 268.432ZM10.6161 267.502C10.6246 267.501 10.5608 267.497 10.4983 267.444C10.4594 267.411 10.4766 267.405 10.5181 267.507C10.5596 267.61 10.597 267.748 10.6441 267.95C10.6846 268.124 10.7398 268.384 10.8099 268.61L12.7208 268.02C12.6783 267.882 12.6468 267.732 12.5921 267.497C12.544 267.29 12.4777 267.018 12.3725 266.758C12.2674 266.498 12.0949 266.174 11.7889 265.916C11.4593 265.638 11.0509 265.499 10.6031 265.502L10.6161 267.502ZM10.8107 268.613C11.3877 270.464 11.4467 272.395 11.394 274.448L13.3933 274.499C13.4472 272.403 13.3995 270.197 12.72 268.018L10.8107 268.613ZM11.3939 274.449C11.3494 276.282 11.6428 278.053 12.3236 279.768L14.1825 279.03C13.6068 277.58 13.3549 276.078 13.3933 274.498L11.3939 274.449ZM12.3231 279.766C12.6184 280.514 13.2564 281.881 14.8378 281.933L14.9045 279.935C14.775 279.93 14.6906 279.89 14.5859 279.774C14.4528 279.626 14.323 279.385 14.183 279.031L12.3231 279.766ZM14.8386 281.933C15.7332 281.963 16.3895 281.574 16.829 281.022C17.2188 280.533 17.427 279.928 17.5644 279.508L15.6631 278.887C15.5219 279.32 15.404 279.601 15.2649 279.776C15.2062 279.849 15.1596 279.882 15.1242 279.9C15.0919 279.916 15.0286 279.939 14.9037 279.934L14.8386 281.933ZM17.5641 279.508C18.1845 277.613 17.9906 275.718 17.6406 274.017L15.6816 274.42C16.0074 276.003 16.1216 277.486 15.6633 278.886L17.5641 279.508ZM17.64 274.014C16.9478 270.697 16.732 267.41 17.1268 264.046L15.1404 263.813C14.7173 267.418 14.9519 270.924 15.6822 274.423L17.64 274.014ZM17.1267 264.046C17.7118 259.073 16.5543 254.385 14.288 250.036L12.5144 250.961C14.6342 255.028 15.6697 259.314 15.1404 263.812L17.1267 264.046ZM14.2876 250.036C13.6149 248.748 13.1518 247.6 13.1267 246.289L11.1271 246.327C11.1613 248.11 11.8006 249.594 12.5149 250.962L14.2876 250.036ZM13.1267 246.289C13.0501 242.343 13.1541 238.499 14.0811 234.779L12.1405 234.295C11.1472 238.281 11.0497 242.342 11.1271 246.328L13.1267 246.289ZM14.0813 234.778C17.9734 219.115 23.2565 203.889 28.9415 188.765L27.0694 188.061C21.3745 203.212 16.0601 218.522 12.1403 234.296L14.0813 234.778ZM28.9413 188.765C30.3248 185.092 31.4946 181.273 30.7325 177.005L28.7636 177.357C29.4239 181.054 28.4363 184.431 27.0697 188.06L28.9413 188.765ZM30.7326 177.006C29.9039 172.344 30.1233 167.607 30.6299 162.818L28.641 162.608C28.1281 167.456 27.8852 172.416 28.7635 177.356L30.7326 177.006ZM30.6297 162.819C31.4991 154.694 32.4761 146.515 32.8275 138.283L30.8293 138.198C30.4814 146.348 29.5143 154.444 28.6411 162.607L30.6297 162.819ZM32.2152 139.162C32.5143 139.037 32.7577 138.819 32.9066 138.527C33.0419 138.262 33.0655 138.002 33.0655 137.825H31.0655C31.0655 137.824 31.0654 137.804 31.0718 137.77C31.0784 137.736 31.0929 137.681 31.1252 137.618C31.1586 137.553 31.2064 137.487 31.2688 137.43C31.3305 137.374 31.3925 137.339 31.4417 137.318L32.2152 139.162ZM32.933 138.323C33.1877 137.879 33.444 137.432 33.7005 136.978L31.9598 135.993C31.7065 136.441 31.4531 136.883 31.198 137.328L32.933 138.323ZM31.8492 136.68C33.5744 145.383 35.4018 154.108 37.9775 162.658L39.8925 162.081C37.3471 153.632 35.5353 144.99 33.811 136.291L31.8492 136.68ZM37.9775 162.658C41.047 172.849 40.0751 182.309 34.8412 191.788L36.592 192.755C42.0861 182.804 43.1174 172.788 39.8925 162.081L37.9775 162.658ZM34.8412 191.788C19.8377 218.949 16.4757 247.933 22.3892 278.133L24.3519 277.749C18.5179 247.955 21.8416 219.458 36.5919 192.755L34.8412 191.788ZM22.3892 278.133C23.9533 286.12 26.0608 293.957 28.2581 301.741C30.4587 309.537 32.7448 317.264 34.6868 325.088L36.6279 324.607C34.6757 316.742 32.3743 308.961 30.1829 301.198C27.9883 293.424 25.8995 285.652 24.3519 277.749L22.3892 278.133ZM34.6868 325.089C38.0042 338.44 39.1339 351.928 37.3331 365.518L39.3158 365.781C41.1543 351.905 39.9962 338.163 36.6278 324.606L34.6868 325.089ZM37.3332 365.518C35.5592 378.894 35.1 392.218 38.4511 405.563L40.3909 405.076C37.1274 392.08 37.5572 379.041 39.3158 365.781L37.3332 365.518ZM38.4511 405.563C40.1487 412.323 42.1321 419.008 44.0561 425.672C45.9827 432.345 47.8522 439.006 49.3383 445.761L51.2916 445.331C49.7904 438.508 47.9051 431.794 45.9776 425.117C44.0476 418.432 42.0776 411.793 40.3909 405.076L38.4511 405.563ZM49.3383 445.761C51.1746 454.105 53.2551 462.11 51.2858 470.447L53.2322 470.907C55.3288 462.031 53.0945 453.524 51.2915 445.331L49.3383 445.761ZM51.2855 470.448C50.9221 471.996 51.3702 473.741 51.7147 475.011L53.6449 474.487C53.2782 473.136 53.0032 471.882 53.2325 470.905L51.2855 470.448ZM51.7152 475.012C52.1127 476.466 51.928 477.808 51.4459 479.367L53.3566 479.958C53.8939 478.221 54.1834 476.457 53.6444 474.485L51.7152 475.012ZM51.4459 479.367C49.8492 484.53 47.0396 489 43.5195 493.138L45.0429 494.434C48.6826 490.156 51.6578 485.451 53.3566 479.958L51.4459 479.367ZM43.3587 493.4C42.8883 494.524 42.2115 496.173 43.3346 497.871L45.0025 496.767C44.5253 496.046 44.702 495.371 45.2037 494.172L43.3587 493.4ZM44.6157 498.213L44.7461 498.148L43.8518 496.359L43.7214 496.424L44.6157 498.213ZM43.5975 497.966C44.3032 498.661 45.4287 499.258 46.6487 499.742C47.8965 500.237 49.3505 500.655 50.8042 500.944C52.2554 501.233 53.7388 501.401 55.0429 501.379C56.2993 501.358 57.573 501.16 58.4479 500.553L57.3078 498.909C56.9439 499.162 56.1809 499.359 55.0091 499.379C53.8849 499.398 52.5486 499.253 51.1948 498.983C49.8435 498.714 48.5074 498.328 47.3862 497.883C46.2372 497.427 45.415 496.949 45.0004 496.541L43.5975 497.966ZM58.4483 500.552C58.7766 500.324 58.9656 500.27 59.0504 500.258C59.1129 500.249 59.1565 500.255 59.2313 500.289C59.3439 500.341 59.4518 500.419 59.6883 500.587C59.8914 500.731 60.1946 500.944 60.5711 501.084L61.2657 499.208C61.1622 499.17 61.049 499.1 60.8466 498.957C60.6777 498.837 60.391 498.621 60.0673 498.472C59.7057 498.306 59.2711 498.204 58.7606 498.279C58.2726 498.35 57.794 498.572 57.3074 498.91L58.4483 500.552ZM60.6838 501.118C62.8156 501.633 65.2037 501.895 67.4512 500.383L66.3346 498.724C64.8125 499.748 63.1464 499.655 61.1531 499.174L60.6838 501.118ZM67.5545 500.303C68.0565 499.86 68.4782 499.315 68.7356 498.631L66.8638 497.927C66.7419 498.251 66.5354 498.535 66.2313 498.803L67.5545 500.303ZM68.7583 498.564C69.2009 497.074 69.1762 495.639 69.0035 494.291C68.9175 493.62 68.7929 492.958 68.6675 492.322C68.5402 491.676 68.414 491.066 68.3121 490.452L66.3391 490.779C66.4475 491.433 66.5829 492.088 66.7053 492.709C66.8295 493.339 66.9428 493.945 67.0197 494.545C67.173 495.742 67.175 496.87 66.8411 497.994L68.7583 498.564ZM68.3095 490.437C67.8236 487.759 67.9208 485.038 68.1157 482.227L66.1205 482.088C65.9243 484.919 65.8081 487.853 66.3416 490.794L68.3095 490.437ZM68.1157 482.227C68.2066 480.929 68.4616 479.676 68.6797 478.271C68.8919 476.903 69.0573 475.445 68.8948 473.931L66.9062 474.144C67.04 475.391 66.909 476.639 66.7034 477.964C66.5037 479.251 66.2193 480.677 66.1206 482.088L68.1157 482.227ZM68.9005 474.03C68.8827 471.699 68.8946 469.368 68.8946 467.026H66.8946C66.8946 469.354 66.8827 471.705 66.9005 474.045L68.9005 474.03ZM68.8915 467.104C69.0001 465.725 68.7327 464.416 68.3709 463.231L66.458 463.815C66.7837 464.882 66.9786 465.919 66.8977 466.947L68.8915 467.104ZM68.37 463.228C65.9963 455.537 65.4754 447.613 65.6345 439.532L63.6349 439.493C63.4738 447.675 63.9962 455.838 66.4589 463.818L68.37 463.228ZM65.6345 439.532C65.8093 430.503 65.0079 421.777 66.3928 413.057L64.4176 412.743C63.0049 421.638 63.8038 430.764 63.6349 439.493L65.6345 439.532ZM66.3928 413.057C67.9609 403.192 67.5354 393.522 64.8876 383.894L62.9592 384.425C65.5273 393.763 65.9434 403.144 64.4176 412.743L66.3928 413.057ZM64.8876 383.894C62.3935 374.823 62.751 365.731 65.0243 356.591L63.0834 356.108C60.7454 365.509 60.3561 374.957 62.9592 384.425L64.8876 383.894ZM65.0243 356.591C66.7055 349.824 66.6433 342.965 65.8591 336.213L63.8725 336.444C64.6412 343.063 64.6857 349.659 63.0833 356.109L65.0243 356.591ZM65.8592 336.213C64.6719 325.951 62.9996 315.915 63.3108 305.71L61.3117 305.649C60.9947 316.046 62.7007 326.316 63.8725 336.443L65.8592 336.213ZM63.3108 305.709C63.482 300.018 63.8659 294.329 64.2631 288.62L62.2679 288.481C61.8709 294.187 61.4843 299.913 61.3117 305.649L63.3108 305.709ZM64.2631 288.62C64.8136 280.745 64.4718 272.898 63.5293 265.084L61.5437 265.323C62.4741 273.038 62.808 280.755 62.268 288.48L64.2631 288.62ZM63.5293 265.084C63.2212 262.524 63.021 260.104 63.5693 257.768L61.6222 257.311C60.9851 260.025 61.2354 262.762 61.5437 265.323L63.5293 265.084ZM63.5698 257.767C63.8185 256.698 64.2492 255.848 64.8421 255.248C65.4226 254.661 66.2103 254.259 67.2906 254.155L67.0997 252.164C65.584 252.31 64.3506 252.9 63.4197 253.842C62.5012 254.772 61.9302 255.988 61.6218 257.313L63.5698 257.767ZM67.2913 254.155C68.2975 254.058 69.0967 254.284 69.7652 254.721C70.4516 255.169 71.0523 255.875 71.5738 256.807L73.3193 255.831C72.6968 254.718 71.8987 253.726 70.8589 253.046C69.8012 252.355 68.5466 252.025 67.099 252.164L67.2913 254.155ZM71.5737 256.807C72.3375 258.173 72.4664 259.719 72.5198 261.511L74.5189 261.452C74.4656 259.664 74.3456 257.666 73.3193 255.831L71.5737 256.807ZM72.5198 261.512C72.5679 263.073 72.4212 264.629 72.2528 266.25C72.0864 267.851 71.8972 269.525 71.8911 271.222L73.8911 271.229C73.8968 269.654 74.0721 268.092 74.2421 266.457C74.41 264.841 74.5715 263.162 74.5189 261.451L72.5198 261.512ZM71.8911 271.221C71.8435 281.816 72.3846 292.376 72.9594 302.918L74.9565 302.81C74.3814 292.264 73.8438 281.759 73.891 271.23L71.8911 271.221ZM72.9594 302.918C73.5047 312.968 72.3155 323.024 70.6189 333.044L72.5909 333.378C74.2964 323.305 75.5136 313.078 74.9565 302.81L72.9594 302.918ZM70.6189 333.044C69.246 341.168 68.7153 349.453 71.1018 357.574L73.0207 357.01C70.7604 349.318 71.2373 341.387 72.5909 333.377L70.6189 333.044ZM71.1019 357.574C73.7879 366.703 73.2718 375.711 70.9097 384.803L72.8454 385.306C75.2723 375.965 75.8349 366.575 73.0206 357.01L71.1019 357.574ZM70.9096 384.803C68.7256 393.22 68.5242 401.673 69.8221 410.17L71.7992 409.868C70.5367 401.603 70.7383 393.426 72.8455 385.306L70.9096 384.803ZM69.8221 410.17C71.5906 421.745 71.5114 433.387 70.6373 445.074L72.6317 445.223C73.5121 433.452 73.5988 421.646 71.7992 409.868L69.8221 410.17ZM70.6373 445.075C70.2041 450.884 69.6933 456.573 67.8315 462.014L69.7238 462.661C71.6791 456.947 72.1996 451.018 72.6318 445.223L70.6373 445.075ZM67.8314 462.014C67.1431 464.028 66.943 466.125 66.9066 468.158L68.9062 468.193C68.941 466.254 69.132 464.393 69.7239 462.661L67.8314 462.014ZM66.9064 468.171C66.9005 469.43 66.9064 470.695 66.9064 471.945H68.9064C68.9064 470.682 68.9005 469.434 68.9064 468.18L66.9064 468.171ZM66.9123 472.053C67.778 479.998 68.0175 487.937 67.284 495.881L69.2756 496.065C70.0239 487.96 69.7774 479.883 68.9005 471.837L66.9123 472.053ZM67.2837 495.885C67.1991 496.842 67.2377 497.893 67.6039 498.927L69.4892 498.259C69.2508 497.586 69.2065 496.847 69.2759 496.061L67.2837 495.885ZM67.6204 498.97C67.8129 499.443 68.1044 499.838 68.4797 500.162L69.7869 498.648C69.6406 498.522 69.541 498.384 69.4726 498.216L67.6204 498.97ZM68.495 500.175C70.5762 501.9 72.7767 501.865 74.755 501.555C75.2452 501.478 75.7341 501.382 76.2029 501.291C76.6779 501.197 77.1327 501.108 77.5849 501.036C78.4899 500.892 79.3224 500.828 80.1178 500.94L80.3989 498.96C79.3155 498.807 78.2558 498.904 77.2699 499.061C76.7766 499.14 76.2862 499.236 75.8183 499.328C75.3441 499.421 74.8921 499.509 74.4456 499.579C72.6765 499.856 71.1933 499.814 69.7716 498.635L68.495 500.175ZM80.118 500.94C83.6488 501.441 87.6946 500.628 91.202 499.258L90.4743 497.395C87.1537 498.692 83.4706 499.396 80.3988 498.96L80.118 500.94ZM91.2604 499.233C91.8617 498.953 92.3512 498.528 92.7174 497.983L91.0571 496.868C90.8899 497.117 90.68 497.297 90.416 497.42L91.2604 499.233ZM92.7701 497.895C92.963 497.532 93.1115 497.128 93.1783 496.686L91.2007 496.387C91.1727 496.573 91.1078 496.761 91.0044 496.956L92.7701 497.895ZM93.1782 496.687C93.3522 495.543 92.9708 494.579 92.4605 493.789L90.7806 494.874C91.1357 495.424 91.2758 495.894 91.2009 496.386L93.1782 496.687ZM92.5425 493.944C91.8244 492.235 90.7996 490.78 89.8077 489.365L88.1702 490.514C89.1816 491.956 90.0771 493.24 90.6986 494.719L92.5425 493.944ZM89.8093 489.368C86.2877 484.315 82.8094 479.675 84.6209 473.433L82.7001 472.875C80.5761 480.195 84.7911 485.666 88.1685 490.511L89.8093 489.368ZM84.6216 473.431C85.0667 471.883 84.9992 470.288 84.5125 468.761L82.607 469.368C82.9856 470.556 83.0249 471.746 82.6995 472.878L84.6216 473.431ZM84.5125 468.761C83.317 465.012 83.4216 461.169 84.0723 457.213L82.0988 456.888C81.4219 461.004 81.2776 465.199 82.607 469.368L84.5125 468.761ZM84.0725 457.212C86.4838 442.455 90.9127 428.197 95.2625 413.848L93.3485 413.268C89.0092 427.582 84.5357 441.975 82.0987 456.889L84.0725 457.212ZM95.2625 413.848C99.6674 399.324 101.201 384.681 98.6762 369.557L96.7035 369.886C99.1693 384.657 97.68 398.986 93.3485 413.267L95.2625 413.848ZM98.6762 369.557C96.4701 356.326 96.9904 343.051 99.7532 329.895L97.7958 329.484C94.9872 342.858 94.4524 356.385 96.7035 369.886L98.6762 369.557ZM99.7531 329.896C100.831 324.772 102.285 319.742 103.812 314.699C105.335 309.668 106.937 304.609 108.288 299.486L106.354 298.976C105.015 304.053 103.431 309.055 101.897 314.119C100.368 319.172 98.893 324.271 97.7959 329.484L99.7531 329.896ZM108.288 299.486C112.025 285.301 116.037 270.959 116.21 255.981L114.21 255.958C114.04 270.638 110.109 284.722 106.354 298.976L108.288 299.486ZM116.21 255.981C116.484 232.343 111.808 209.771 99.7936 189.055L98.0635 190.058C109.864 210.405 114.481 232.606 114.21 255.958L116.21 255.981ZM99.7938 189.055C95.2344 181.187 94.626 173.025 97.3736 164.471L95.4694 163.859C92.5625 172.909 93.1988 181.663 98.0634 190.058L99.7938 189.055ZM97.3735 164.471C99.5783 157.611 100.845 150.563 102.111 143.587L100.144 143.23C98.873 150.23 97.627 157.146 95.4694 163.859L97.3735 164.471ZM102.111 143.588C102.629 140.744 102.735 138.146 104.155 135.215L102.355 134.343C100.777 137.599 100.61 140.668 100.144 143.229L102.111 143.588ZM102.259 134.867C102.68 139.597 103.03 143.706 103.403 147.808L105.395 147.627C105.022 143.526 104.673 139.431 104.251 134.69L102.259 134.867ZM103.403 147.809C103.608 150.038 103.885 152.261 104.167 154.47C104.45 156.684 104.738 158.879 104.97 161.075C105.433 165.465 105.667 169.808 105.184 174.142L107.171 174.364C107.678 169.82 107.428 165.313 106.958 160.865C106.724 158.641 106.432 156.42 106.151 154.217C105.869 152.009 105.596 149.816 105.395 147.626L103.403 147.809ZM105.184 174.142C104.558 179.748 105.484 184.781 107.285 189.895L109.171 189.23C107.44 184.316 106.588 179.592 107.171 174.364L105.184 174.142ZM107.285 189.894C111.526 201.954 115.516 214.102 119.615 226.233L121.51 225.593C117.418 213.483 113.418 201.306 109.172 189.231L107.285 189.894ZM119.583 226.117C120.52 230.607 121.618 234.935 122.288 239.369L124.266 239.07C123.585 234.566 122.454 230.086 121.541 225.709L119.583 226.117ZM122.288 239.369C122.977 243.919 123.196 248.164 120.684 252.12L122.373 253.192C125.302 248.577 124.964 243.683 124.266 239.07L122.288 239.369ZM120.684 252.12C118.056 256.257 118.094 260.978 118.488 265.381L120.48 265.203C120.091 260.847 120.129 256.725 122.373 253.192L120.684 252.12ZM118.488 265.382C118.73 268.078 118.652 270.694 118.08 273.318L120.034 273.744C120.659 270.88 120.736 268.055 120.48 265.203L118.488 265.382ZM118.08 273.317C117.704 275.035 117.582 276.808 117.595 278.523L119.595 278.509C119.583 276.892 119.699 275.275 120.034 273.745L118.08 273.317ZM117.595 278.521C117.598 279.06 117.642 279.842 117.964 280.527C118.133 280.886 118.389 281.243 118.774 281.516C119.162 281.792 119.625 281.943 120.142 281.974L120.259 279.977C120.068 279.966 119.977 279.918 119.932 279.886C119.884 279.852 119.828 279.792 119.774 279.676C119.648 279.409 119.597 279.002 119.595 278.51L117.595 278.521ZM120.141 281.974C121.155 282.034 121.894 281.588 122.396 280.983C122.852 280.434 123.123 279.741 123.313 279.233L121.439 278.533C121.244 279.057 121.07 279.449 120.857 279.707C120.689 279.909 120.533 279.994 120.261 279.977L120.141 281.974ZM123.312 279.236C124.023 277.353 124.088 275.413 124.039 273.599L122.04 273.652C122.087 275.406 122.009 277.023 121.441 278.53L123.312 279.236ZM124.039 273.599C123.993 271.848 124.055 270.201 124.486 268.598L122.554 268.079C122.048 269.962 121.992 271.836 122.04 273.652L124.039 273.599ZM124.485 268.601C124.515 268.492 124.542 268.381 124.567 268.28C124.593 268.175 124.616 268.079 124.641 267.985C124.692 267.793 124.738 267.649 124.786 267.541C124.835 267.43 124.863 267.413 124.845 267.429C124.807 267.463 124.748 267.482 124.716 267.483L124.659 265.484C123.682 265.512 123.188 266.213 122.959 266.726C122.754 267.185 122.626 267.813 122.555 268.077L124.485 268.601ZM124.715 267.483C124.791 267.481 124.761 267.497 124.711 267.458C124.678 267.433 124.699 267.431 124.742 267.536C124.786 267.644 124.825 267.792 124.869 268.008C124.906 268.188 124.957 268.477 125.017 268.711L126.954 268.216C126.91 268.043 126.884 267.879 126.828 267.607C126.78 267.371 126.712 267.069 126.593 266.78C126.474 266.488 126.278 266.141 125.932 265.875C125.568 265.594 125.13 265.471 124.66 265.484L124.715 267.483ZM125.016 268.708C125.835 271.955 125.784 274.51 124.916 276.653C124.047 278.796 122.302 280.674 119.442 282.449L120.497 284.148C123.576 282.237 125.689 280.07 126.769 277.404C127.85 274.737 127.837 271.717 126.955 268.219L125.016 268.708ZM119.443 282.449C118.081 283.293 116.361 284.247 115.297 285.96L116.996 287.015C117.758 285.788 118.989 285.083 120.496 284.149L119.443 282.449ZM115.297 285.96C115.211 286.099 115.107 286.234 114.947 286.458C114.806 286.654 114.628 286.911 114.491 287.195C114.354 287.48 114.225 287.86 114.252 288.297C114.281 288.76 114.478 289.178 114.811 289.529L116.262 288.153C116.215 288.103 116.244 288.115 116.248 288.173C116.25 288.203 116.238 288.177 116.293 288.062C116.349 287.946 116.439 287.809 116.572 287.623C116.686 287.464 116.863 287.229 116.996 287.016L115.297 285.96ZM114.812 289.53C115.146 289.881 115.543 290.109 115.985 290.201C116.415 290.291 116.819 290.238 117.16 290.139C117.802 289.953 118.398 289.544 118.764 289.299L117.655 287.635C117.221 287.924 116.892 288.134 116.603 288.218C116.479 288.254 116.417 288.248 116.393 288.243C116.382 288.241 116.339 288.233 116.26 288.151L114.812 289.53ZM118.762 289.3C119.017 289.131 119.236 288.926 119.383 288.79C119.556 288.631 119.649 288.548 119.732 288.494C119.799 288.451 119.798 288.468 119.76 288.468C119.721 288.469 119.76 288.452 119.906 288.544L120.97 286.85C120.582 286.607 120.164 286.46 119.718 286.469C119.272 286.478 118.913 286.642 118.644 286.816C118.391 286.98 118.172 287.187 118.027 287.32C117.857 287.478 117.754 287.569 117.656 287.634L118.762 289.3ZM119.495 287.363C119.325 287.845 119.083 288.318 118.795 288.844C118.519 289.35 118.188 289.928 117.911 290.527C117.336 291.774 116.936 293.235 117.359 295.085L119.309 294.64C119.015 293.354 119.27 292.356 119.727 291.365C119.967 290.846 120.246 290.36 120.551 289.802C120.845 289.264 121.154 288.672 121.381 288.03L119.495 287.363ZM118.94 295.658C119.72 295.063 120.371 294.373 120.959 293.693C121.591 292.96 122.044 292.37 122.642 291.699L121.149 290.368C120.58 291.007 119.951 291.799 119.445 292.386C118.893 293.025 118.346 293.595 117.727 294.067L118.94 295.658ZM122.641 291.701C123.815 290.388 125.028 289.112 126.252 287.818C127.472 286.527 128.701 285.221 129.885 283.869L128.381 282.551C127.224 283.872 126.019 285.153 124.799 286.444C123.582 287.731 122.347 289.03 121.151 290.367L122.641 291.701ZM129.885 283.869C132.043 281.405 133.08 278.553 133.82 275.723C134.58 272.81 134.995 270.113 135.932 267.463L134.046 266.797C133.08 269.529 132.573 272.581 131.885 275.217C131.175 277.936 130.235 280.433 128.381 282.551L129.885 283.869ZM135.934 267.457C136.019 267.212 136.006 266.992 135.985 266.853C135.964 266.714 135.924 266.596 135.901 266.528C135.888 266.491 135.875 266.456 135.865 266.431C135.855 266.403 135.848 266.386 135.842 266.37C135.829 266.333 135.835 266.344 135.841 266.377L133.876 266.745C133.888 266.812 133.904 266.871 133.918 266.92C133.933 266.968 133.948 267.012 133.96 267.047C133.972 267.08 133.985 267.114 133.994 267.136C134.003 267.161 134.009 267.177 134.013 267.19C134.018 267.202 134.018 267.204 134.017 267.2C134.016 267.197 134.011 267.18 134.007 267.153C134 267.105 133.986 266.97 134.044 266.803L135.934 267.457ZM130.921 223.696C130.921 223.236 130.847 222.739 130.743 222.207L128.78 222.59C128.877 223.089 128.921 223.434 128.921 223.696H130.921ZM128.961 222.998C129.023 223.08 129.029 223.125 129.031 223.142C129.033 223.166 129.033 223.223 128.99 223.332L130.852 224.061C131.13 223.353 131.121 222.545 130.561 221.798L128.961 222.998Z" fill="#974485" mask="url(#path-1-inside-1_12913_1595)"/>
</svg>
