<svg width="43" height="43" viewBox="0 0 43 43" fill="none" xmlns="http://www.w3.org/2000/svg">
<g clip-path="url(#clip0_733_10038)">
<path fill-rule="evenodd" clip-rule="evenodd" d="M21.3323 12.1201C26.6436 12.1242 30.9456 16.4319 30.9415 21.7418C30.9374 27.0518 26.6286 31.3526 21.3172 31.3485C16.0059 31.3444 11.7039 27.0367 11.708 21.7268C11.7121 16.4168 16.0209 12.116 21.3323 12.1201" fill="#FD993D"/>
<path fill-rule="evenodd" clip-rule="evenodd" d="M17.5703 9.01782C18.1811 8.86446 18.5893 8.31539 18.5893 7.71292C18.5893 7.60338 18.5756 7.49248 18.5482 7.38157L17.0457 1.42122C16.8636 0.699629 16.1308 0.261469 15.409 0.443579C14.6872 0.625689 14.249 1.35687 14.4311 2.07983L15.9336 8.04018C16.1158 8.76177 16.8485 9.19993 17.5703 9.01782ZM12.3256 11.461C12.3256 11.7978 12.1996 12.1361 11.9462 12.3976C11.4285 12.9316 10.5738 12.9466 10.0397 12.4277L5.62267 8.15291C5.08852 7.63533 5.07346 6.78092 5.59254 6.24691C6.11025 5.71154 6.96352 5.69784 7.49904 6.21542L11.9147 10.4916C12.1886 10.7559 12.3256 11.1077 12.3256 11.461ZM8.85181 18.36C8.88057 18.2477 8.89427 18.1354 8.89427 18.0245C8.89427 17.4234 8.49023 16.8757 7.88212 16.7196L1.92841 15.1874C1.20663 15.0012 0.471144 15.4353 0.286247 16.1569C0.0999793 16.8771 0.534147 17.6124 1.25593 17.7972L7.20964 19.3294C7.93006 19.5156 8.66554 19.0816 8.85181 18.36ZM8.70506 25.5766C8.70506 26.1763 8.30102 26.7226 7.69428 26.8801L1.74194 28.4178C1.02016 28.604 0.284674 28.1713 0.0984071 27.4497C-0.0878603 26.7295 0.344937 25.9942 1.06672 25.808L7.01906 24.2689C7.73948 24.0827 8.47496 24.5168 8.66123 25.237C8.69136 25.3506 8.70506 25.4643 8.70506 25.5766ZM11.9245 33.1124C12.2121 32.8468 12.3587 32.484 12.3587 32.1211C12.3587 31.7939 12.2409 31.4666 12.0012 31.2065C11.4972 30.6601 10.6439 30.6245 10.0961 31.1284L5.57498 35.2937C5.02714 35.7989 4.9929 36.652 5.49828 37.1983C6.0023 37.746 6.85557 37.7816 7.40342 37.2763L11.9245 33.1124ZM18.9926 34.907C19.0241 34.7906 19.0391 34.6728 19.0391 34.5578C19.0391 33.9622 18.6433 33.4172 18.0407 33.2556C17.3216 33.0626 16.582 33.4884 16.3889 34.2073L14.7933 40.143C14.5988 40.8632 15.0262 41.6026 15.7452 41.7957C16.4643 41.9887 17.2038 41.5615 17.397 40.8427L18.9926 34.907ZM27.6158 2.192C27.6158 2.30564 27.6007 2.42066 27.5706 2.53431L26.0078 8.47959C25.8188 9.19845 25.082 9.62976 24.3616 9.43943C23.6411 9.25048 23.2111 8.51245 23.4001 7.7936L24.9628 1.84968C25.1518 1.12946 25.8901 0.699513 26.6105 0.888469C27.2158 1.0473 27.6158 1.59363 27.6158 2.192ZM36.9298 8.34015C37.2353 8.07452 37.3928 7.70071 37.3928 7.32417C37.3928 7.01061 37.2846 6.69431 37.0613 6.43826C36.5724 5.87687 35.7218 5.81799 35.1589 6.30682L30.5214 10.3406C29.9585 10.8294 29.8996 11.6811 30.3886 12.2425C30.8775 12.8039 31.7294 12.8628 32.291 12.3753L36.9298 8.34015ZM42.1733 16.3207C42.1733 16.9122 41.7802 17.4544 41.1817 17.6187L35.2526 19.2454C34.535 19.4426 33.7926 19.0195 33.5954 18.302C33.3982 17.5831 33.8214 16.8424 34.5391 16.6452L40.4681 15.0185C41.1858 14.8227 41.9281 15.2445 42.1254 15.962C42.1582 16.0824 42.1733 16.2029 42.1733 16.3207ZM42.0288 27.1647C42.0576 27.0525 42.0713 26.9402 42.0713 26.8293C42.0713 26.2282 41.6673 25.6805 41.0592 25.5244L35.1054 23.9922C34.3837 23.806 33.6482 24.24 33.4633 24.9616C33.277 25.6818 33.7112 26.4171 34.433 26.602L40.3867 28.1342C41.1071 28.3204 41.8426 27.8863 42.0288 27.1647ZM37.0363 36.085C37.0363 36.4342 36.9007 36.7847 36.6309 37.0476C36.0981 37.5679 35.2449 37.5583 34.7244 37.0257L30.4266 32.6318C29.9061 32.0991 29.9143 31.2461 30.4471 30.7258C30.9799 30.2055 31.8332 30.2151 32.3536 30.7463L36.6515 35.1416C36.909 35.4045 37.0363 35.7441 37.0363 36.085ZM26.7557 42.3548C27.3569 42.1933 27.7541 41.6497 27.7541 41.0554C27.7541 40.939 27.7391 40.8213 27.7076 40.7035L26.1078 34.7678C25.9134 34.049 25.1738 33.6231 24.4547 33.8176C23.7357 34.0106 23.3097 34.7514 23.5042 35.4702L25.1039 41.4046C25.297 42.1234 26.0366 42.5493 26.7557 42.3548Z" fill="#F9B200"/>
</g>
<defs>
<clipPath id="clip0_733_10038">
<rect width="42.1181" height="41.9995" fill="white" transform="translate(0.0551758 0.402344)"/>
</clipPath>
</defs>
</svg>
